<svg version="1" xmlns="http://www.w3.org/2000/svg" width="444" height="444" viewBox="0 0 333.000000 333.000000"><path d="M116 85.7c-27.7 46.1-51.6 85.7-53.2 88-2.4 3.6-2.6 4.2-1.1 4.7.9.4 25 14.4 53.4 31.2 44.6 26.3 52.1 30.4 53.8 29.4 3.2-1.7 103.5-61.1 103.9-61.5C273.4 177 167.8 2 166.9 2c-.3 0-23.2 37.7-50.9 83.7z"/><path d="M28 95v88.5h33.3l52.2 74c28.8 40.7 52.7 74 53.3 74 .6 0 24.8-33.2 53.7-73.7l52.7-73.8 16.1-.2 16.2-.3-.5-87.3-.5-87.3-27.8 46-27.8 45.9 19.6 36.1c10.7 19.8 19.5 36.3 19.5 36.6 0 .8-5.5 4.1-64.5 38.8-30.8 18.1-56.4 33-57 33-1.1 0-86.4-50.7-107.6-63.9l-13.6-8.5 18.5-34.2c10.2-18.8 19-35.3 19.5-36.7.9-2.2-1.7-6.9-23.8-43.5C45.8 35.9 33.2 15 31.3 12L28 6.5V95z"/></svg>